Coordinates
version=1
nRows=65
nColumns=12
inDegrees=yes

Units are S.I. units (second, meters, Newtons, ...)
Angles are in degrees

endheader
time	SC_y	SC_z	SC_x	AC_y	AC_z	AC_x	GH_y	GH_z	GH_yy	EL_x	PS_y
       0.0               -33.2          15.98          78.59          32.53         -17.93          -17.5          110.6          66.97         -122.9          108.4          150.3
   0.02714               -33.2          15.98          78.58          32.53         -17.93          -17.5          110.6          66.97         -122.9          108.4          150.3
   0.05428               -33.2          15.98          78.58          32.53         -17.93          -17.5          110.6          66.96         -122.8          108.4          150.3
   0.08141              -33.21          15.98          78.58          32.53         -17.93         -17.49          110.6          66.96         -122.8          108.4          150.3
    0.1086              -33.21          15.98          78.57          32.53         -17.93         -17.49          110.6          66.96         -122.8          108.5          150.3
    0.1357              -33.21          15.97          78.57          32.53         -17.93         -17.49          110.6          66.95         -122.8          108.5          150.3
    0.1628              -33.21          15.97          78.56          32.53         -17.93         -17.48          110.6          66.95         -122.8          108.5          150.2
      0.19              -33.22          15.97          78.56          32.53         -17.93         -17.48          110.6          66.94         -122.8          108.5          150.2
    0.2171              -33.22          15.97          78.56          32.53         -17.93         -17.47          110.6          66.94         -122.8          108.5          150.2
    0.2442              -33.22          15.96          78.55          32.54         -17.93         -17.47          110.6          66.93         -122.8          108.5          150.2
    0.2714              -33.23          15.96          78.55          32.54         -17.93         -17.46          110.6          66.92         -122.7          108.5          150.2
    0.2985              -33.23          15.96          78.54          32.54         -17.93         -17.46          110.6          66.92         -122.7          108.5          150.1
    0.3257              -33.24          15.95          78.53          32.54         -17.93         -17.45          110.6          66.91         -122.7          108.5          150.1
    0.3528              -33.24          15.95          78.53          32.54         -17.93         -17.44          110.6           66.9         -122.7          108.5          150.1
    0.3799              -33.25          15.94          78.52          32.54         -17.93         -17.44          110.6          66.89         -122.7          108.5          150.1
    0.4071              -33.25          15.94          78.51          32.55         -17.93         -17.43          110.6          66.89         -122.6          108.5          150.0
    0.4342              -33.26          15.93           78.5          32.55         -17.93         -17.42          110.6          66.88         -122.6          108.5          150.0
    0.4613              -33.27          15.93          78.49          32.55         -17.93         -17.41          110.6          66.86         -122.6          108.6          150.0
    0.4885              -33.27          15.92          78.48          32.55         -17.93          -17.4          110.6          66.85         -122.6          108.6          149.9
    0.5156              -33.28          15.91          78.47          32.56         -17.93         -17.39          110.6          66.84         -122.5          108.6          149.9
    0.5428              -33.29          15.91          78.46          32.56         -17.93         -17.37          110.6          66.82         -122.5          108.6          149.8
    0.5699               -33.3           15.9          78.45          32.56         -17.93         -17.36          110.6          66.81         -122.4          108.6          149.8
     0.597              -33.31          15.89          78.43          32.57         -17.93         -17.35          110.6          66.79         -122.4          108.6          149.7
    0.6242              -33.32          15.88          78.41          32.57         -17.94         -17.33          110.5          66.77         -122.4          108.7          149.6
    0.6513              -33.33          15.87           78.4          32.58         -17.94         -17.31          110.5          66.75         -122.3          108.7          149.6
    0.6784              -33.35          15.86          78.38          32.58         -17.94         -17.29          110.5          66.73         -122.2          108.7          149.5
    0.7056              -33.36          15.84          78.35          32.59         -17.94         -17.27          110.5           66.7         -122.2          108.7          149.4
    0.7327              -33.38          15.83          78.33          32.59         -17.94         -17.24          110.5          66.67         -122.1          108.8          149.3
    0.7599               -33.4          15.81           78.3           32.6         -17.94         -17.21          110.5          66.64         -122.0          108.8          149.2
     0.787              -33.43          15.79          78.26          32.61         -17.94         -17.18          110.5           66.6         -121.9          108.9          149.0
    0.8141              -33.45          15.76          78.23          32.62         -17.94         -17.14          110.5          66.55         -121.8          108.9          148.9
    0.8413              -33.49          15.74          78.18          32.63         -17.94         -17.09          110.5           66.5         -121.6          109.0          148.7
    0.8684              -33.52          15.71          78.13          32.64         -17.94         -17.04          110.5          66.44         -121.5          109.0          148.5
    0.8955              -33.56          15.67          78.07          32.66         -17.94         -16.98          110.5          66.37         -121.3          109.1          148.3
    0.9227              -33.61          15.63           78.0          32.68         -17.94         -16.91          110.5           66.3         -121.1          109.2          148.0
    0.9498              -33.67          15.58          77.92           32.7         -17.95         -16.83          110.5           66.2         -120.9          109.3          147.7
     0.977              -33.74          15.52          77.83          32.72         -17.95         -16.73          110.5          66.09         -120.6          109.4          147.3
     1.004              -33.82          15.45          77.71          32.75         -17.95         -16.62          110.5          65.96         -120.2          109.6          146.8
     1.031              -33.92          15.37          77.57          32.79         -17.95         -16.47          110.5          65.79         -119.8          109.7          146.3
     1.058              -34.04          15.26           77.4          32.83         -17.96          -16.3          110.4           65.6         -119.3          110.0          145.6
     1.086              -34.18          15.13          77.19          32.89         -17.96         -16.09          110.4          65.35         -118.7          110.2          144.8
     1.113              -34.37          14.97          76.93          32.96         -17.97         -15.82          110.4          65.05         -117.9          110.6          143.7
      1.14               -34.6          14.77           76.6          33.04         -17.97         -15.49          110.3          64.66         -116.9          111.0          142.4
     1.167               -34.9          14.52          76.18          33.15         -17.98         -15.06          110.3          64.18         -115.6          111.5          140.7
     1.194              -35.28          14.19          75.65          33.29         -17.99         -14.51          110.2          63.55         -114.0          112.2          138.6
     1.221              -35.76          13.77          74.96          33.47         -18.01         -13.81          110.2          62.75         -111.9          113.1          135.8
     1.248              -36.39          13.24          74.08           33.7         -18.02         -12.92          110.1          61.73         -109.3          114.3          132.3
     1.275              -37.17          12.56          72.97          33.99         -18.05          -11.8          109.9          60.44         -105.9          115.7          127.9
     1.303              -38.12          11.74          71.63          34.34         -18.08         -10.43          109.8          58.87         -101.9          117.4          122.5
      1.33              -39.22          10.79          70.06          34.74         -18.11         -8.838          109.6          57.05         -97.17          119.5          116.3
     1.357              -40.42          9.756          68.37          35.18         -18.14         -7.119          109.4          55.09         -92.08          121.6          109.5
     1.384              -41.61          8.724          66.68          35.62         -18.18           -5.4          109.2          53.12         -86.98          123.8          102.8
     1.411              -42.72          7.772          65.12          36.03         -18.21         -3.812          109.0           51.3         -82.27          125.9          96.53
     1.438              -43.67           6.95          63.77          36.38         -18.24         -2.442          108.9          49.73         -78.21          127.6          91.14
     1.465              -44.45          6.276          62.67          36.66         -18.26         -1.317          108.8          48.45         -74.87          129.0          86.73
     1.493              -45.07           5.74          61.79          36.89         -18.28        -0.4233          108.7          47.42         -72.22          130.2          83.21
      1.52              -45.56           5.32           61.1          37.07         -18.29         0.2766          108.6          46.62         -70.15          131.1          80.46
     1.547              -45.94          4.993          60.56          37.21          -18.3          0.822          108.5           46.0         -68.53          131.7          78.32
     1.574              -46.24          4.737          60.14          37.32         -18.31          1.248          108.5          45.51         -67.27          132.3          76.64
     1.601              -46.47          4.536          59.82          37.41         -18.32          1.583          108.4          45.13         -66.27          132.7          75.33
     1.628              -46.65          4.377          59.55          37.47         -18.32          1.849          108.4          44.82         -65.48          133.1          74.28
     1.655               -46.8          4.249          59.34          37.53         -18.33          2.063          108.4          44.58         -64.85          133.3          73.44
     1.683              -46.92          4.145          59.17          37.57         -18.33          2.236          108.4          44.38         -64.34          133.5          72.76
      1.71              -47.02           4.06          59.03          37.61         -18.33          2.377          108.3          44.22         -63.92          133.7          72.21
     1.737               -47.1           3.99          58.92          37.64         -18.34          2.494          108.3          44.08         -63.57          133.9          71.75
